<?xml version="1.0" encoding="UTF-8"?><svg id="Layer_1" xmlns="http://www.w3.org/2000/svg" viewBox="0 0 500 500"><defs><style>.cls-1{fill:#0095da;}</style></defs><path class="cls-1" d="M257.69,361.46c-23.23,0-44.98-4.03-61.24-11.34-18.28-8.23-28.35-20.07-28.35-33.35v-122.42c0-13.28,10.07-25.13,28.35-33.35,16.26-7.31,38-11.34,61.24-11.34s44.98,4.03,61.24,11.34c18.28,8.23,28.35,20.07,28.35,33.35v122.42c0,13.28-10.07,25.13-28.35,33.35-16.26,7.31-38,11.34-61.24,11.34Zm-65.49-44.7c0,2.1,4.24,7.21,15.62,12,13.16,5.54,30.87,8.59,49.87,8.59s36.71-3.05,49.87-8.59c11.38-4.79,15.62-9.9,15.62-12v-9.51l-.94,.47c-16.6,8.33-39.52,12.92-64.55,12.92s-47.95-4.59-64.55-12.92l-.94-.47v9.5Zm0-40.81c0,2.1,4.24,7.21,15.62,12,13.16,5.54,30.87,8.59,49.87,8.59s36.71-3.05,49.87-8.59c11.38-4.79,15.62-9.9,15.62-12v-9.5l-.94,.47c-16.6,8.33-39.52,12.92-64.55,12.92s-47.95-4.59-64.55-12.92l-.94-.47v9.5Zm0-40.81c0,2.1,4.24,7.21,15.62,12,13.16,5.54,30.87,8.59,49.87,8.59s36.7-3.05,49.87-8.59c11.38-4.79,15.62-9.9,15.62-12v-9.5l-.94,.47c-16.6,8.33-39.52,12.92-64.55,12.92s-47.95-4.59-64.55-12.92l-.94-.47v9.5Zm65.49-61.4c-19,0-36.71,3.05-49.87,8.59-11.38,4.79-15.62,9.9-15.62,12s4.24,7.21,15.62,12c13.16,5.54,30.87,8.59,49.87,8.59s36.71-3.05,49.87-8.59c11.38-4.79,15.62-9.9,15.62-12s-4.24-7.21-15.62-12c-13.16-5.54-30.87-8.59-49.87-8.59Z"/><path class="cls-1" d="M441.28,486.39c-26.05,0-47.24-21.19-47.24-47.24,0-8.04,2.08-16,6-23.01l1.11-1.98-40.43-40.43-2.11,1.78c-28.23,23.79-64.08,36.9-100.93,36.9s-72.71-13.1-100.93-36.9l-2.11-1.78-40.43,40.43,1.11,1.98c3.93,7.01,6,14.96,6,23.01,0,26.05-21.19,47.24-47.24,47.24s-47.24-21.19-47.24-47.24,21.19-47.24,47.24-47.24c8.04,0,16,2.08,23.01,6l1.98,1.11,40.43-40.43-1.78-2.11c-23.79-28.23-36.9-64.08-36.9-100.93s13.1-72.71,36.9-100.93l1.78-2.11-40.43-40.43-1.98,1.11c-7.01,3.93-14.96,6-23.01,6-26.05,0-47.24-21.19-47.24-47.24S48.04,24.72,74.09,24.72s47.24,21.19,47.24,47.24c0,8.04-2.08,16-6,23.01l-1.11,1.98,40.43,40.43,2.11-1.78c28.23-23.79,64.07-36.9,100.93-36.9s72.71,13.1,100.93,36.9l2.11,1.78,40.43-40.43-1.11-1.98c-3.93-7.01-6-14.97-6-23.01,0-26.05,21.19-47.24,47.24-47.24s47.24,21.19,47.24,47.24-21.19,47.24-47.24,47.24c-8.04,0-16-2.08-23.01-6l-1.98-1.11-40.43,40.43,1.78,2.11c23.79,28.23,36.9,64.08,36.9,100.93s-13.1,72.71-36.9,100.93l-1.78,2.11,40.43,40.43,1.98-1.11c7.01-3.93,14.97-6,23.01-6,26.05,0,47.24,21.19,47.24,47.24s-21.19,47.24-47.24,47.24Zm0-73.07c-14.25,0-25.83,11.59-25.83,25.83s11.59,25.84,25.83,25.84,25.84-11.59,25.84-25.84-11.59-25.83-25.84-25.83Zm-367.19,0c-14.25,0-25.84,11.59-25.84,25.83s11.59,25.84,25.84,25.84,25.83-11.59,25.83-25.84-11.59-25.83-25.83-25.83ZM257.69,120.11c-74.68,0-135.44,60.76-135.44,135.45s60.76,135.45,135.44,135.45,135.45-60.76,135.45-135.45-60.76-135.45-135.45-135.45ZM441.28,46.13c-14.25,0-25.83,11.59-25.83,25.83s11.59,25.84,25.83,25.84,25.84-11.59,25.84-25.84-11.59-25.83-25.84-25.83Zm-367.19,0c-14.25,0-25.84,11.59-25.84,25.83s11.59,25.84,25.84,25.84,25.83-11.59,25.83-25.84-11.59-25.83-25.83-25.83Z"/></svg>